<svg width="253" height="291" viewBox="0 0 253 291" fill="none" xmlns="http://www.w3.org/2000/svg">
<path d="M169.8 278.1C170.3 276.5 170.1 272.8 169.8 270.2C169.2 264.4 167.6 258.7 163.2 254.4C161.3 252.6 160.9 250.7 161 248.2C161.4 237.9 161.7 227.6 162 217.2C162 216.1 161.6 214.7 162.6 213.9C165.9 211.3 164.9 208 164.5 204.7C163.2 194 160.9 183.5 161.2 172C168.1 175.2 174.4 178.3 181 180.9C188 183.6 194 182.2 199.5 177.5C208.6 169.7 214.3 159.7 218.6 148.7C219.7 145.9 219.8 142.6 218.9 139.8C218 137 219 135.2 220.3 133C225.6 124.4 229.9 115.5 230.8 105.3C231.4 98.8 232 97.9 238.7 97.3C240 97.2 241.4 97.3 242.7 97.2C248.7 96.8 251.9 93.1 252 87.1C252.1 81.6 248.5 78.9 244.6 76.3C243.2 75.8 241.7 75.9 240.3 75.9C237.2 77.2 235.3 80.1 232.4 81.8C230.3 83.8 228.2 85.8 225.8 87.5C224.5 88.4 223.5 88.6 222.4 87.4C217 82.6 211.5 78.1 204.7 75.2C203.1 74.9 202.3 73.6 201.1 72.8C199.8 72.2 198.4 71.8 197.1 71C196.1 70.7 195 70.8 194 70.5C193 70.2 192.1 69.6 191.2 69.1C189.8 69 189.7 67.2 188.3 67.1C184 69.4 183.5 69.3 182.3 64.6C181.2 60.5 180.1 56.4 179.6 52.2C178.8 51.4 179.5 50.2 178.9 49.3C178.2 46.7 180.5 45 181.1 42.8C182.5 37.3 181.6 34.9 176.1 34.6C171.5 34.3 169.3 32.1 167.5 28.4C164.9 23 162.3 17.6 158.6 12.9C153.7 6.7 147.3 3.7 141.2 6.9C135.5 9.8 132.1 8.1 127.5 5.3C116.1 -1.4 103.5 2.38419e-06 91 0.700002C82.1 1.2 74.5 7.6 65.1 5.8C63.1 5.4 61.2 7.4 59.7 9C55.7 13.3 52.1 17.8 49 22.8C47.8 24.6 46.8 26.6 44.9 27.7C42.3 29.3 40.3 31.1 41.3 34.5C42.4 38 44.8 40.1 48.5 40.4C49.8 40.5 51.3 40 51.9 41.7C51.7 42 51.7 42.4 51.4 42.5C42.4 45.9 36.8 52.3 35 62C34.6 64.5 33 63.7 31.6 63.5C24.2 62.7 16.7 61.9 9.30001 61.1C4.30001 60.5 1.60001 62.9 1.00001 68.5C0.500009 73.9 3.20001 77.5 8.20001 77.5C15.9 77.6 23.5 77.6 31.2 77.6C33 77.6 34.5 77.3 35.1 80C36.6 87.7 40.5 94.2 46.1 99.8C43.1 101.9 40.1 103.8 38.2 106.9C30.5 119.3 23.2 132 17.4 145.4C15.8 149 15.4 152.6 16.8 156.5C18.8 162.3 20.3 168.2 22.3 174C23 175.9 23.1 177.1 21.3 178.7C15.1 184.4 13.9 193.5 17.9 201C19.6 204.3 22.3 207.2 25.8 207.2C33 207.2 36.1 213.3 38.3 217.2C43 225.3 46.6 234.1 52.2 242.6C50.1 242.2 48.8 242 47.5 241.8C34.4 239.5 25 245.9 22.1 258.8C21.2 262.9 20.9 267 20.9 271.2C20.9 272.8 20.7 276 22.3 277.5C35.6 291.1 55.8 288.6 60.9 286.1C65 284.2 93.1 288.2 100.9 283.1C107.7 278.6 99.1 264.3 100.2 255.5C100.6 252.1 101.3 248.6 103.5 245.5C106.7 250.4 109.7 255.4 113.2 260C115 262.4 114.6 264.4 113.8 266.8C112.8 269.6 108.4 284.9 128.2 287.6C131.5 287.5 144.6 292 152 290C157 288.5 166.8 287.9 169.8 278.1ZM181.8 99C181.1 99.6 180.5 100.8 180.7 101.7C181.6 107.5 178.6 112.1 175.7 118.3C170.4 112.7 165.2 107.4 160.4 101.8C157.6 98.5 153.4 96.9 151.3 92.8C150.5 91.4 150.1 90.5 151.4 89C158.1 80.9 161.1 71.4 161.9 61.1C162.1 58.8 162.4 57.5 165.1 57.3C169 57.1 172.1 54.6 175.5 52.6C176.4 56.3 177.2 59.8 178.1 63.3C179.3 67.8 180.1 71.6 176.2 76C171.4 81.5 173.6 88.2 180.7 93.3C183 95 184.5 96.3 181.8 99Z" fill="#290D02"/>
<path d="M204.9 77.1C202.9 77.4 202.5 75.7 201.6 74.5C203.9 68.5 210.1 66.3 214 62C215 60.9 216.4 60.2 217.5 59.2C222 55.1 221.8 54 216.4 51.2C213.7 49.8 212.4 51.2 211.2 53.2C208.1 58.3 204.9 63.4 201.7 68.4C200.6 70 199.8 72 197.5 72.3C196.5 72.7 195.6 73.8 194.6 72.2C194.4 68.5 197.4 66.4 198.9 63.6C200.2 61.3 201.6 59.1 203 56.8C207.4 50 207.3 49.9 199.2 49.1C196.2 48.8 195.2 50.2 195.1 52.6C194.8 56.1 194.1 59.5 193.8 62.9C193.6 65.5 193.6 68.2 191.4 70.2C188.6 71.3 190 68.7 189.4 67.9C186.9 64.5 189.1 60.9 189.2 57.4C189.4 51.7 189.6 51.8 184.2 52.7C182.6 53 181 53.7 179.5 52.3C178.9 51.9 178.9 51 179 50.3C186 48.9 192.9 44.1 200.2 45.2C208 46.5 217 43.6 223.3 51.1C224 51.9 225.7 52.8 226.3 52.5C230.8 50.3 232.6 53.6 234.9 56.2C238.5 60.3 241.9 64.6 245.7 68.6C248.8 71.9 248.9 74.6 245.2 77.2C244 77.9 242.7 78.8 241.5 77.2C244.5 73.1 242.5 70.1 239.4 67.2C236.5 64.5 234.3 61.2 231.6 58.2C229.9 56.4 228.4 56 226.5 57.6C219.6 64.3 211.5 69.9 204.9 77.1Z" fill="#150A07"/>
<path d="M132.6 133.1C138.4 123 143.5 112.5 150.6 103.2C152.3 103 153.8 103 155.1 104.5C161.1 111.1 167.5 117.2 173.9 123.4C174.9 124.4 176.2 125.4 175.6 127.2C172.7 132.5 169.8 137.9 169.8 145.4C172 139.4 173.9 134.6 178.5 130.6C180.8 138.9 186.7 143.5 193.6 147.3C199.2 152.1 200.1 157 196.6 164.2C193.7 170.2 187.8 173.3 181.4 172C171.7 170 163 165.3 154 161.4C149.4 159.4 144.9 157.5 139.6 154.8C143 165.3 142.7 175.4 143.8 185.4C145.6 201 138.2 213.2 123.3 218.4C112.6 222.1 101.7 225.2 90.8 228C86.8 229 82.2 230.1 78.6 226.4C71.7 215.9 69 203.9 66.7 191.9C66.3 189.8 67.7 188.1 68.7 186.4C73.1 178.7 79.5 173.6 88.1 171.1C92.7 169.7 97 167.4 100.7 164.1C102.7 162.3 105.2 161.9 107.7 162.1C113.6 162.6 117.5 160 120.4 155C124.6 147.6 128.7 140.4 132.6 133.1Z" fill="#666666"/>
<path d="M73.7 56.2C75.2 54.6 77.2 54.3 79.2 54.3C83.6 54.4 87.8 54.2 91 50.4C92.2 48.9 93.8 49.9 95.2 50.2C103.5 52.1 110.5 56.4 116.2 62.6C117.3 63.8 119.9 65.9 123.1 70.6C121.5 65.3 116.2 59 113.2 55.6C118.1 55.2 122.6 54.9 126.4 52.1C127.8 51.1 128.8 52.7 129.8 53.5C137.3 59.7 140.4 68 141.1 77.4C141 80.4 141.9 83.4 141.7 86.4C136.9 96.5 125.6 101.7 114 98.7C106.1 96.7 99 92.7 95.1 85C90.6 76.3 83.9 69.8 76.4 63.8C73.8 62 71.2 60 73.7 56.2Z" fill="#FEE0BC"/>
<path d="M78.6 226.2C86 228.6 93 226.5 100 224.4C107.4 222.1 114.8 219.4 122.2 217.1C137 212.7 143.1 202.1 142.5 187.5C142.2 181.7 142.2 175.9 141.5 170.2C140.8 164.5 139.2 158.9 137.9 152.5C143.8 155.2 149.2 157.7 154.7 160.1C163.4 163.8 171.7 168.3 181 170.4C186.2 171.5 191.6 170 194.1 165.9C197.4 160.6 199.2 154.6 194.9 149.9C194.3 149.2 194 148.2 193.6 147.3C200.2 148.6 206.7 149.2 212.8 145.3C213.5 144.9 214.3 144.3 215.1 144.9C215.9 145.6 215.8 146.8 215.4 147.7C211.2 159.3 204.9 169.5 194.9 177C191.9 179.2 188.4 179.6 184.5 178.2C172.4 173.9 161.3 167.7 150.2 161.3C149.7 161 149.3 160.3 147.5 161.3C157.3 166.6 158 175.3 158 185C158 192.8 160 200.7 161.2 208.5C161.8 212.4 158.5 212.5 156.5 213C146.9 215.6 137.3 218 127.6 220.2C114.7 223.1 101.7 225.6 89 229.6C85.1 230.7 80.8 231.6 78.6 226.2Z" fill="#424240"/>
<path d="M90.7 255.1C83.7 255.7 76.7 255.6 69.7 254C64.1 248.1 60 241.2 57.1 233.6C56.3 231.3 55.7 228.7 58.6 227.1C65.6 229.4 73.6 227.9 80 233.4C82.5 235.5 86.7 234.4 90.1 233.3C99.1 230.4 108.4 228.8 117.6 226.9C124.4 225.5 131.1 224.1 138 223.5C146.9 222.7 149.7 225.3 150.1 234.2C150.2 237 150.2 239.8 150.1 242.6C150 246.3 148.6 248.3 144.5 247C135.9 246.9 128.2 249.1 121.7 255C119.1 255.4 118.5 253.1 117.4 251.6C113.6 246.5 109.1 242.2 103.6 238.9C101.3 238.2 99.1 237.5 96.6 237.8C96.3 241.7 95.1 245.4 94.8 249.3C94.7 252.5 93 254 90.7 255.1Z" fill="#666666"/>
<path d="M138.6 57.2C138.5 57.1 138.3 57 138.2 56.9C133.6 52.3 128.7 48 132.4 40.1C133.4 37.9 133.3 34.6 131.9 31.9C131.8 31.6 131.7 31.3 131.7 31C131.1 24.2 128.3 22 125.6 19.7C117.9 13 97.7 13.7 90.5 23.1C89.2 24.8 81.9 25.2 80.9 23.3C78.8 19.5 75.1 18.6 71.6 17.3C75.3 10.9 82 9.10001 88.3 8.00001C99.8 5.90001 111 5.00001 122.4 8.60001C123.1 8.80001 123.6 9.10001 124.7 9.50001C129.8 11.3 134.3 14.7 137.5 20.2C137.7 18.7 137.8 18 138 17.2C142.6 10.3 150.8 10.5 155.5 17.6C158.7 22.5 161.9 27.4 164.3 32.7C165.8 35.9 167.8 38.3 171.2 39.3C173.5 39.3 176.6 38.3 177.6 40.5C178.8 43.1 176.1 45.2 174.6 47.3C165.6 56.1 152.1 53.4 147.7 41.9C146.5 38.7 145.2 35.5 143.6 32.4C141.2 29.1 139.3 25.4 134 22.9C139.4 31 140.8 39 142.7 46.9C143.7 51 147.1 53.3 149.7 56.3C152.3 59.6 152.2 62.4 149.5 64.3C147 66.1 144 65.5 141.8 62.4C140.8 60.6 139.9 58.8 138.6 57.2Z" fill="#C35D00"/>
<path d="M37.6 148.1C38.7 133.4 43.7 120.1 52.3 108.1C50.6 115.5 48.9 123 47.3 130.4C46.3 135.1 46.6 140 46.8 144.8C46.9 146.2 47.3 147.4 48.2 148.4C51.3 151.9 53.1 155.3 52.4 160.6C51.9 164 54.5 168.2 56.5 171.5C59.8 176.8 61.7 182.2 62.1 188.5C62.7 197.2 65.5 205.6 67.7 214.1C66 217.5 63 217.6 60 216.8C53.3 215.2 47.3 211.9 41.7 208.1C38.7 206.2 37.8 202.9 37.3 199.5C36.5 193.9 36.1 188.3 36.2 182.7C36.5 171.2 36.6 159.6 37.6 148.1Z" fill="#666665"/>
<path d="M226.5 110.2C225.8 114.9 224.1 119.2 221.7 123.2C220.4 124.9 219.3 126.8 217.8 128.3C214.5 131.8 210.3 133 205.6 131.9C198.9 130.3 192.9 127.2 187.6 123C183.8 120 184 117.5 187.7 114.3C190.1 114 192.3 115.9 194.8 114.9C194.9 114.9 195 114.6 195 114.5C195 114.4 194.8 114.2 194.7 114.1C192.7 112.7 190.7 111.2 189 109.4C187.4 107.7 187.1 105.5 188 103.4C188.9 101.5 190.3 100.2 192.7 101C195.3 101.7 197.9 102.5 201 103.3C199.8 101.1 197.8 100.6 196.5 99.3C193.6 96.6 190.2 94.5 187 92.2C181.3 88 179.8 83.6 181.7 77.2C182.9 76.3 184 75.1 185.7 75.4C190.9 75.9 195.6 77.9 199.9 80.9C205.9 85 212 89 217.7 93.6C223.2 98 227.7 102.5 226.5 110.2Z" fill="#C35D00"/>
<path d="M61.7 253.2C65.8 255.8 67.6 260.5 71.1 263.6C72 262.5 71.5 261.3 71.7 260.2C76.5 258.6 80.2 261 83.2 264C87.9 268.7 86.3 275 79.8 278.9C77.6 280.2 75.1 281 72.7 280.9C62.6 280.4 52.5 281.3 42.5 279.5C36.2 278.3 29.7 277.2 25.7 271.2C25.8 268.5 25.1 265.6 26.8 263.1C29.5 249.1 42.3 244.9 55.5 250.4C57.6 251.2 59.1 253.3 61.7 253.2Z" fill="#663607"/>
<path d="M163.8 263.1C166.1 268 167.2 272.9 166.1 278.4C165.4 282.1 163.1 283.5 160 283.9C156.9 284.3 153.8 285 150.8 285.8C144.9 287.5 139.2 287.4 133.4 284.6C130.4 283.1 127 282.1 123.4 281.9C119.8 281.7 117.4 279.2 117.7 275.6C118.4 269.1 118.8 262.2 125.2 258C132.4 253.5 140.1 252 148.4 253.8C154.8 255.3 160.2 257.7 163.8 263.1Z" fill="#653507"/>
<path d="M96.6 152.3C95.5 151.7 94.3 151.2 93.2 150.6C92.1 152 93.5 153 93.7 154.1C93.9 158 91.1 159.5 88.3 161C83.2 163.6 77.6 165.6 73.7 170.2C71.2 173.2 68.4 175.9 66.2 179.3C66.1 174.4 66 169.7 67.7 165.1C69 159 72.4 154.5 77.4 150.7C90.2 141.2 104 133.2 116.4 123.3C118.4 121.7 120.3 120.2 121.7 118.1C129.6 111 137.4 103.9 145.3 96.8C146.1 96.1 146.9 94.2 148.4 95.9C149.5 97.2 148.9 98.2 147.9 99.3C143.7 104.2 140.1 109.5 136.7 115C131.4 122.6 127.4 131 122.3 138.8C119.5 143 116 146.6 112.1 149.6C107.5 153.3 102.3 154.5 96.6 152.3Z" fill="#666666"/>
<path d="M70 80.9C74.2 82.2 75.4 87.7 80.8 88.4C77.8 84.1 75.2 80.4 71.7 77.4C66.2 72.8 61.1 73.5 56.8 79.2C56.2 80 55.7 80.8 55 81.6C54.2 82.4 53.4 83.6 52.1 83C50.7 82.4 50.6 80.9 50.7 79.5C50.9 74.6 56.2 68.1 61.4 66.1C67 63.9 71.1 66.4 74.6 70.4C79.8 76.4 83.7 83.4 87.8 90.2C86.3 93.3 89.4 94.2 90.7 95.8C96.4 102.5 95.5 105.4 86.8 107.5C77.3 109.8 68.6 107.4 60.6 102.6C54.2 98.8 53.6 94.3 57.4 87.9C58 86.9 58.6 85.9 59.2 84.9C62.9 79.1 63.4 78.9 70 80.9Z" fill="#FDE1BD"/>
<path d="M126.8 27.2C127.9 30.1 128.5 33.1 128.7 36.2C129.3 47 124 51.7 113.9 51.2C106.6 50.9 99.4 48 95.7 40.4C94 35.3 95.2 30.7 99.2 27.6C106 22.3 113.8 21.9 121.8 23.2C124 23.7 125.5 25.5 126.8 27.2Z" fill="#4C0B00"/>
<path d="M73.7 56.2C73.1 59.2 74.5 61.1 76.8 62.8C84.8 68.8 91.4 76 96.4 84.9C106 101.9 127.1 102.8 140.8 87.2C144.3 90.3 141.7 92.7 140 95.3C136.4 100.9 131.3 104.9 126 108.5C121.3 111.7 116.1 110.5 111.3 107.9C102.8 103.3 97.2 95.8 91.8 88.2C87.6 82.4 83.9 76.3 79.9 70.4C77.6 67 74.8 64.3 71.1 62.5C69.9 61.9 67.8 62.2 67.8 60.1C67.8 58.2 69.7 58 70.9 57.3C71.8 56.9 72.8 56.6 73.7 56.2Z" fill="#D59C79"/>
<path d="M204.9 77.1C204.1 76 204.2 75.3 205.4 74.4C212.5 68.4 219.6 62.4 226.5 56.2C228.7 54.3 229.9 53.9 231.9 56.5C235 60.6 238.3 64.6 242 68.1C245.7 71.6 246 74.4 241.5 77.2C238.9 79.3 236.2 81.3 233.6 83.3C231.1 84.4 229.2 86.2 227 87.7C225.6 88.6 224.4 89.9 222.5 89.2C217 84.8 211.8 79.7 204.9 77.1Z" fill="#FBFBFB"/>
<path d="M25.7 271.1C32.5 276.4 40.6 278.1 48.9 278.9C57.3 279.7 65.7 281.3 74.1 279.4C80.9 277.9 85.1 273.8 84.6 269.4C84.1 264.6 78.1 260.2 71.7 260.1C72.6 258.7 74.1 258.8 75.3 259.2C81 260.7 86.9 260.1 92.7 260C95.8 260 97.3 261.1 97.7 264.1C98.1 267.4 98.8 270.6 99.5 273.8C100.1 276.6 99.2 278.2 96.3 278.9C87.6 281.2 78.8 281.4 69.9 281.1C63.4 280.9 57 280.8 50.4 282.5C45.2 283.8 39.4 281.2 34.1 279.1C32.4 278.4 30.8 277.4 29.2 276.7C26.4 275.9 25.2 274 25.7 271.1Z" fill="#4D2404"/>
<path d="M187.7 114.3C184.6 118.3 186 121 190 123.4C194.1 125.9 198.3 128.2 202.8 129.9C208.7 132.1 214.1 131.3 218.4 126.1C219.3 125 220.6 124.1 221.7 123.2C219.7 129.3 216 134.3 212.1 139.3C209.9 142.1 206.8 142.3 203.5 142.4C198.6 142.5 194.4 140.7 190.5 138.1C188.1 136.5 185.5 134.5 186.2 131.4C186.8 128.7 190.1 131.1 192 129.6C189.2 126.6 185 125.2 182.8 121.6C181.5 119.5 181 117.3 182.5 115.1C184 112.9 185.8 112.9 187.7 114.3Z" fill="#8D3100"/>
<path d="M43.7 112.2C38.9 123.1 34.6 134 33.3 146C32.8 150.7 32.2 155.5 31.6 160.2C30.9 162.1 31.3 164.5 29.6 166C28.1 167.3 26.5 167.7 24.9 166.1C20.7 157.5 19.7 149.2 25.1 140.4C30.2 132.1 34 123.1 39.6 115.1C41.3 114.7 41.2 111.5 43.7 112.2Z" fill="#676666"/>
<path d="M37.6 148.1C37.6 161.4 37.8 174.7 37.6 187.9C37.5 192.3 38.3 196.5 38.8 200.7C39.1 203.3 40.1 206 42.7 207.4C47.9 210.2 53.1 213.3 58.8 215.2C62.1 216.3 64.9 216.1 67.7 214.1C69.2 217.5 70.8 221 72.6 225.1C65.3 224.8 59.1 222.6 53.3 219.8C49.3 217.9 45.6 215.3 41.6 213.4C37.6 211.5 36.3 208.2 35.9 204.3C34.3 188.1 34.5 171.9 36.7 155.8C36.9 153.3 35.9 150.5 37.6 148.1Z" fill="#44423F"/>
<path d="M140 95.3C139.9 92.6 142.4 90.1 140.8 87.2C140.9 84 140.9 80.8 141 77.6C142.3 78.9 141.1 80.8 142.1 82.5C145.5 73.3 142 65.3 138.6 57.3C140.1 57.9 140.9 59.2 141.7 60.4C143.3 62.7 145.1 65.6 148.5 63.7C151.6 61.9 150.9 59 149.7 56.2C158.5 59 159.3 60.3 157.2 69.1C154.6 79.8 149.6 89.1 140 95.3Z" fill="#8C3200"/>
<path d="M70 80.9C67.6 81.6 64.8 78.9 62.6 81.8C59.8 85.5 57.1 89.4 55.9 93.8C55 97.2 58 99.8 60.7 101.3C69.7 106.5 79.3 109 89.6 105.3C94.1 103.7 94.5 101.8 91.3 98.1C89.3 95.7 87.3 93.3 85.5 91.1C85.6 91.1 86.6 90.6 87.6 90.1C91.6 94.8 95.5 99.4 99.5 104.1C101.8 106.8 100.9 108.4 97.8 108.8C85.2 110.6 72.6 111 60.5 106C53.9 103.3 49.2 98.6 47.2 91.5C46.3 88.4 46.4 86.5 50.4 87.2C54.6 87.9 57.2 85.5 59.5 82.4C62.9 78.1 65 77.8 70 80.9Z" fill="#D39D7C"/>
<path d="M144.6 247.3C147.8 247.6 149 246.1 148.7 242.9C148.3 238.6 149.1 234.3 148.2 230.1C147.4 226.5 145.7 224.9 141.7 225C134.9 225.1 128.3 225.7 121.6 226.9C120.3 227.1 119 227 117.6 227C130.2 222.9 143.3 221.2 156 217.4C158.2 216.7 158.8 218.1 158.6 219.8C157.3 229.1 157.8 238.4 157.7 247.6C157.7 248.9 157.3 250.2 155.7 249.4C152.1 247.7 148.1 248.9 144.6 247.3Z" fill="#43423E"/>
<path d="M57.4 47.5C56 48.3 51.3 50.8 50.5 52.4C57.6 48.5 61.4 51.5 63.5 55.3C64.7 57.4 63.6 60.4 62.7 60.6C56.7 62 52 67.4 45.1 66.3C39.2 65.4 38.8 65.2 40.7 59.8C43.5 52.3 49.9 47.4 57.4 47.5Z" fill="#F9DEBB"/>
<path d="M58.5 119.2C58.3 123.4 59.5 127.4 60.4 131.4C60 136.8 62.6 141.5 64.2 146.3C64.9 148.3 65.9 150.2 66.7 152.1C65.6 155.7 63.9 159.2 63.6 163C62.1 165.4 60.9 163.9 59.8 162.7C57.9 160.5 57.4 157.8 56.8 155.1C56.1 150.8 55.4 146.5 54.7 142.2C51.4 140 52.3 136.6 52.4 133.6C52.6 128.8 53.9 124.1 55.2 119.5C55.5 118.5 55.9 117.1 57.4 117.2C58.3 117.3 58.1 118.5 58.5 119.2Z" fill="#666666"/>
<path d="M76.8 25.2C78.5 31.5 76 35.6 70.2 36.2C68 36.4 66 37 64.2 38.2C57.8 42.6 57.7 42.6 53.8 36C54.4 27.3 55.2 25.9 61.7 23.9C66.9 22.3 72 22.3 76.8 25.2Z" fill="#4D0B00"/>
<path d="M132.6 133.1C133.1 135.8 131 137.4 130 139.4C126.8 145.4 123.4 151.3 120.2 157.3C117.9 161.6 114.2 163.4 109.5 163.1C105.7 162.9 102.8 163.7 99.5 166.3C95.7 169.3 90.9 171.3 86.3 173C80.3 175.1 75.2 178 71.7 183.5C71 184.6 69.8 185.3 68.8 186.1C72.2 177 78.5 170.8 87.5 167.3C91.9 165.6 96.2 163.9 99.2 160C100 158.9 100.7 158.8 102.1 159.1C112.4 161.4 115.2 160.4 121.1 151.4C124.5 146.2 127.5 140.6 130.8 135.2C131.2 134.5 132 133.9 132.6 133.1Z" fill="#46413D"/>
<path d="M197.5 72.2C202.2 65 207 57.9 211.5 50.6C212.9 48.4 213.8 47.8 216 49.4C218.5 51.2 221.3 52.8 224.2 54.6C216.6 61.3 209.2 67.8 201.7 74.4C200 74.3 198 74.5 197.5 72.2Z" fill="#FBF8F6"/>
<path d="M191.5 70.2C192.3 64.1 193.1 58.1 193.7 52C194.1 48.5 194.9 46.1 199.1 47.8C199.6 48 200.1 48 200.6 48.1C209.3 49.2 209.3 49.2 204.7 56.4C201.4 61.7 197.9 66.9 194.6 72.2C193.1 72.3 191.7 72.2 191.5 70.2Z" fill="#F9F7F5"/>
<path d="M75.7 144.1C73.9 145 71.6 148 70.5 146.5C68.5 143.8 66 140.6 67.5 136.5C69.9 129.7 73.2 127.7 80.8 128.1C84 131.8 84.1 136.8 80.8 140C79.1 141.6 77.5 143 75.7 144.1Z" fill="#FA0009"/>
<path d="M126.8 27.2C120 21.3 105 24.3 99.8 28.7C96.2 31.8 95.7 36.1 95.7 40.5C88.8 32.2 91.6 23.2 102.4 20.6C108.3 19.2 114.7 19.2 120.6 21.3C123.4 22.3 126 23.9 126.8 27.2Z" fill="#9B3014"/>
<path d="M9.79999 68.2C10.7 67.1 11.5 65.9 13.4 66.2C20.6 67.2 27.8 68 35 69C36.5 69.2 39 68.8 39 70.9C39.1 73.2 37.6 73.2 36.2 73.1C30.6 75.1 12 75 6.79999 73.3C8.59999 72 8.59999 69.8 9.79999 68.2Z" fill="#7A3205"/>
<path d="M58.7 227.2C55.8 232.5 59.7 236.4 61.7 240.5C64 245.2 67 249.6 69.8 254.1C66.6 254.1 65.5 251.1 63.8 249.4C56.7 242.2 51.1 233.8 46.8 224.6C46.4 223.8 45.6 222.9 46.6 221.5C50.6 223.3 54.6 225.2 58.7 227.2Z" fill="#43423E"/>
<path d="M96.6 152.3C107.9 153.8 114.9 147.1 120.7 138.9C125.2 132.6 129 125.8 133.1 119.2C134.1 117.6 134.8 116 136.7 115.2C130.4 128.1 123.6 140.7 115 152.2C110.7 158 104.8 157.6 96.6 152.3Z" fill="#46423D"/>
<path d="M226.5 110.2C226 99.1 217.1 94.5 209.7 89.1C202.3 83.7 194.7 78.3 185.7 75.5C191.7 74.3 196.7 76.9 201.7 79.5C209.7 83.6 217 88.7 222.9 95.6C226.7 99.8 228.3 104.6 226.5 110.2Z" fill="#E27C1D"/>
<path d="M179.7 52.2C182.7 51.5 185.8 50.9 188.8 50.2C191 49.7 191.7 50.2 191.3 52.6C190.5 57.6 190.1 62.7 189.5 67.8C189.2 70.2 187.9 71 185.4 71.1C182.4 71.3 182.6 69.4 182.3 67.8C181.5 62.7 178.5 57.8 179.7 52.2Z" fill="#F9F6F4"/>
<path d="M121.7 118.2C120.3 123.3 115.4 125.2 111.7 128C100.8 136.3 89.5 144.1 78.1 151.8C73.1 155.2 70 159.9 67.6 165.2C68.1 158.1 70.7 152.6 77.3 148.5C92.6 139.1 107.8 129.5 121.7 118.2Z" fill="#A29C9A"/>
<path d="M111.7 120.3C108.5 123.2 105.1 125.6 101 127.8C100.3 122.7 98.1 118.3 96.2 113.7C99.4 113.1 102.5 112.6 105.5 112C111.5 111.9 114 115.2 111.7 120.3Z" fill="#E5E5E4"/>
<path d="M81.6 114.4C83.7 114.4 85.9 114.5 88 114.4C89.9 114.3 91.1 115.3 90.4 117C89.2 120.3 86.3 123.2 83.3 123.6C79.7 124 74.8 125.1 72.3 120.4C70.2 116.4 71.5 114.2 76 114.2C77.8 114.2 79.6 114.2 81.4 114.2C81.6 114.3 81.6 114.3 81.6 114.4Z" fill="#F7010E"/>
<path d="M236.8 84.4C241.2 80.6 243.8 80.4 246.8 83.8C248.4 85.6 249.1 87.7 248.3 90.2C247.5 92.7 245.6 93.9 243.1 94.1C240.6 94.3 238.2 94.2 235.7 94.3C232.2 92.7 232.2 90.3 234.2 87.5C235 86.3 235.9 85.4 236.8 84.4Z" fill="#C25D05"/>
<path d="M143.6 32.2C145.9 34.3 147.6 36.9 148.2 39.7C150.7 51.3 162.9 53.6 171.9 48.5C172.8 48 173.7 47.6 174.6 47.2C172.5 52.2 168.1 53.7 163.2 54.2C157.1 54.9 151.7 53.5 148.3 47.7C145.6 42.9 145 37.4 143.6 32.2Z" fill="#863505"/>
<path d="M61.7 253.2C59.1 254.7 57.5 252.3 55.6 251.6C48.7 248.8 42.1 247.9 35.2 251.9C30.7 254.5 28.9 258.9 26.8 263.1C27.3 251.4 35.2 245.2 46.8 247C52.4 247.7 57.5 249.3 61.7 253.2Z" fill="#814E28"/>
<path d="M163.8 263.1C159.3 259.1 154.1 256.7 148.3 255.1C140.1 252.8 132.8 255.9 125.4 258.1C137.4 247.3 157.6 249.9 163.8 263.1Z" fill="#834F25"/>
<path d="M103.6 239.2C110.4 240.3 113.7 245.8 117.8 250.4C119.2 252 119.7 254.3 121.7 255.3C119.1 259.7 117.2 259 114.7 254.9C111.4 249.4 107.4 244.4 103.6 239.2Z" fill="#45413E"/>
<path d="M21.9 199C20 192.9 19.1 187.1 25.3 182.3C26.2 183.7 27 184.9 27.8 186.1C30 189.6 29.5 193.2 27.8 196.5C26.7 198.7 25 200.9 21.9 199Z" fill="#C05E07"/>
<path d="M171.2 39.2C167.8 39.1 165.8 37.2 164.2 34.4C161.6 29.6 158.5 25.1 156 20.3C151.8 12.4 145.7 10.4 138 17.1C138.2 12.1 145.5 9.40001 151 12.1C154.1 13.7 156.2 16.2 157.9 19.1C160.2 22.9 162.3 26.9 164.3 30.9C166 34.2 168 37.1 171.2 39.2Z" fill="#DD8438"/>
<path d="M58.5 119.2C57.8 119 57.1 116.4 56.3 119C54.1 126.6 52.2 134.2 54.6 142.2C52.9 143 54.4 145.6 52 146.4C48.2 133.4 54 121.9 57.5 110.1C57.8 113.2 58.2 116.2 58.5 119.2Z" fill="#473F3E"/>
<path d="M21.9 199C26.1 199.2 27.1 196.1 27.6 193C28 190.8 27.7 188.4 27.7 186.1C29.8 186 30.7 186.8 30.7 189C30.6 192.5 30.8 195.9 31.5 199.4C31.8 200.9 32.5 202.9 30.6 203.9C29 204.7 27.4 204.1 25.9 203.3C24.1 202.3 22.5 201.1 21.9 199Z" fill="#893302"/>
<path d="M175.7 127.2C168.7 119.8 161.6 112.4 154.5 105.1C153.6 104.1 152 103.8 150.7 103.2C151.9 100.4 153.5 100.9 155.2 102.7C162.2 109.6 169.1 116.6 176.1 123.5C177.7 125 177.7 126.1 175.7 127.2Z" fill="#A39E9B"/>
<path d="M90.1 135.1C86.8 127.9 86.8 127.9 94.2 121.8C98.5 129.5 98.1 130.7 90.1 135.1Z" fill="#D9D6D4"/>
<path d="M90.7 255.1C94.7 251.9 93.4 247 94.6 242.9C95.1 241.2 95.1 239.3 96.7 238.1C98.1 240 102.4 240.9 100.1 244.1C97.2 248 99.9 256.8 90.7 255.1Z" fill="#46423F"/>
<path d="M24.8 166.1C29.8 167.3 29.9 162.8 31.5 160.2C31.7 167 29.9 173.6 30.2 180.5C27.5 175.9 26 171.1 24.8 166.1Z" fill="#4A413A"/>
<path d="M181.7 77.3C180.1 86.9 187.2 91.1 193.2 95.9C194.5 96.9 196 97.6 196.6 99.4C190.8 96.7 185.8 92.7 180.9 88.6C177.6 85.8 178 82 181.7 77.3Z" fill="#853801"/>
<path d="M73.7 170.2C76 164.6 81.7 163.2 86.3 160.8C89.5 159.1 92 157.2 93.8 154.2C98.7 157.4 94.8 159 92.5 160.3C86.2 163.6 79.6 166.3 73.7 170.2Z" fill="#49403D"/>
<path d="M89.8 39.9C87.2 38.3 85.4 37.4 83.2 37.1C81.8 37 79.3 37.6 80 34.8C80.4 33 80.5 30.4 83.1 30.4C84.9 30.4 87.3 30.5 87.5 33.3C87.6 35.4 88.6 37.1 89.8 39.9Z" fill="#A8530B"/>
<path d="M236.8 84.4C235.6 87.6 231.8 90.5 235.7 94.2C234.8 94.6 233.9 94.9 233 95.3C230.9 96.2 228.8 97.4 227.4 94.3C226.2 91.6 228.7 91 230.1 90C232.5 88.3 234 85.6 236.8 84.4Z" fill="#883405"/>
<path d="M65.2 118.2C70.6 122.8 69.4 127.1 65.2 131.1C62.3 125.2 62.3 122.6 65.2 118.2Z" fill="#D8D5D3"/>
<path d="M192.7 101.1C187.8 103.5 187.2 106 190.6 109.8C191.9 111.3 193.3 112.7 194.6 114.2C191.5 113.4 189.2 111.3 187 109.2C184.4 106.7 184.5 104 186.4 101.3C188.4 98.3 190.6 99.9 192.7 101.1Z" fill="#843605"/>
<path d="M75.7 144.1C80.2 139.7 84.2 135.1 80.7 128.2C85.4 128.1 83.9 132.3 85 134.6C85.9 136.4 85.9 138.2 84 139.3C81.2 140.9 79 143.5 75.7 144.1Z" fill="#A90611"/>
<path d="M56.7 155.1C58 157.5 59.4 159.9 60.7 162.4C61.4 163.7 62.3 163.9 63.5 163.1C63 165.6 62.5 168.1 61.9 171.7C58.6 166 56.6 160.9 56.7 155.1Z" fill="#474039"/>
<path d="M111.7 120.3C112.4 115.1 110.9 113.1 105.5 112.1C107.2 110.6 108.9 111.5 110.5 112.3C113.1 113.5 115.7 114.4 119.2 114.4C116.8 117 114.5 118.8 111.7 120.3Z" fill="#A49E9A"/>
<path d="M66.7 152.2C62.2 146 59.7 139.2 60.4 131.4C61.4 137.1 63.5 142.4 65.8 147.6C66.4 149.1 67.7 150.4 66.7 152.2Z" fill="#A59E9E"/>
<path d="M222.7 89.2C226.7 87.8 229 83.3 233.8 83.4C231.8 86.2 228.8 87.9 226.4 90.3C224.3 92.2 223.6 90.5 222.7 89.2Z" fill="#D1CECA"/>
<path d="M9.80001 68.2C10.3 70.8 11.1 73.5 6.80001 73.3C6.50001 71.7 5.20001 70.3 6.00001 68.6C6.40001 67.8 6.30001 66.5 7.40001 66.2C9.00001 65.9 9.20001 67.3 9.80001 68.2Z" fill="#947665"/>
<path d="M42.2 85.8C40.4 83.4 39.4 81 39.9 79C40.3 77.4 42.7 78.5 44.5 78.5C43.8 80.9 43.1 83.1 42.2 85.8Z" fill="#D4BBA6"/>
<path d="M43.7 112.2C41.7 112.2 42.4 116.2 39.5 115.1C40.9 111.6 43.1 108.7 46.9 107C45.8 108.7 44.8 110.4 43.7 112.2Z" fill="#A59995"/>
<path d="M59.1 16.8C61.9 13.9 63.5 10.7 67.5 10.8C64.9 12.8 65 18.1 59.1 16.8Z" fill="#B67138"/>
<path d="M49.4 36.7C46.6 36.4 45.7 35.3 45.9 33.3C46 32.9 47.1 32.2 47.4 32.4C48.9 33.2 48.7 34.8 49.4 36.7Z" fill="#A36034"/>
<path d="M89.5 29.1C89.5 29.1 87.1 28.4 84.8 28.5C82.6 28.5 80.4 28.8 80.4 28.8L80.6 26.3C80.6 26.3 82.9 26.8 84.9 26.7C86.9 26.6 89.8 26.2 89.8 26.2L89.5 29.1Z" fill="#FEE0BC"/>
<path d="M36.1662 67.5298L33.694 67.1588L32.5216 74.9711L34.9939 75.3421L36.1662 67.5298Z" fill="#290D02"/>
<path d="M200.1 54.1L199.8 54C199.8 53.5 199.7 52.9 199.7 52.3C199.6 51.2 199.6 50.2 199.5 49.3C199.4 49.3 199.2 49.2 199.2 49.2C199 49.5 198.8 49.8 198.6 50.1C198 51.1 197.3 52.3 196.7 53.2L196.4 53.1H196.3V53.2C196.3 53.3 196.2 53.4 196.2 53.5V53.6H196.3C196.4 53.6 196.5 53.6 196.6 53.7C196.7 53.7 196.8 53.7 196.9 53.8L197.7 54H197.8V53.9C197.8 53.8 197.9 53.7 197.9 53.6V53.5H197.8L197.3 53.4C197.4 53.2 197.6 52.9 197.7 52.6L197.8 52.5L199.2 52.8C199.2 53.1 199.2 53.4 199.3 53.7V53.9L198.9 53.8H198.8V53.9C198.8 54 198.8 54 198.8 54.1C198.8 54.2 198.8 54.2 198.8 54.3V54.4H198.9C199 54.4 199.1 54.5 199.3 54.5C199.4 54.5 199.6 54.6 199.7 54.6L200.3 54.7H200.4V54.6C200.1 54.4 200.2 54.3 200.1 54.1ZM197.9 52C198.1 51.7 198.2 51.4 198.4 51.1C198.6 50.8 198.8 50.5 198.9 50.2V50.3C198.9 50.9 199 51.6 199 52.2L197.9 52Z" fill="#333333"/>
<path d="M196.9 55.4C196.8 55.8 196.8 55.9 196.9 56C196.8 55.9 196.7 55.8 196.5 55.7C196.3 55.6 195.8 55.6 195.7 56.3C195.5 56.9 196 57.2 196.2 57.3C196.5 57.4 197 57.3 197.2 56.9C197.2 56.9 197.2 56.8 197.3 56.9C197.4 56.9 197.1 58.1 195.9 57.9V58L198.2 58.5V58.4C197.1 58 197.4 56.8 197.5 56.9C197.6 56.9 197.5 57 197.5 57C197.5 57.4 197.9 57.7 198.2 57.7C198.5 57.8 199 57.7 199.1 57.1C199.3 56.5 198.9 56.3 198.6 56.2C198.4 56.2 198.2 56.2 198.1 56.2C198.2 56.1 198.3 56 198.4 55.6C198.6 54.9 197.8 54.7 197.8 54.7C197.8 54.7 197.1 54.8 196.9 55.4Z" fill="#333333"/>
<path d="M185.3 56.4H185C184.9 56 184.7 55.6 184.6 55.1C184.3 54.3 184.1 53.5 183.9 52.8C183.8 52.8 183.7 52.8 183.6 52.8C183.5 53.1 183.4 53.3 183.3 53.6C183 54.5 182.7 55.6 182.4 56.4H182.1V56.5C182.1 56.6 182.1 56.7 182.1 56.8V56.9H182.2C182.3 56.9 182.3 56.9 182.4 56.9C182.5 56.9 182.6 56.9 182.6 56.9H183.3V56.8C183.3 56.7 183.3 56.6 183.3 56.5V56.4H182.9C183 56.2 183 55.9 183.1 55.7V55.6H184.3C184.4 55.8 184.4 56.1 184.5 56.3V56.4H184.1V56.5V56.6V56.7V56.8H184.2C184.3 56.8 184.4 56.8 184.5 56.8C184.6 56.8 184.7 56.8 184.9 56.8H185.4V56.7C185.3 56.6 185.3 56.5 185.3 56.4ZM183.1 55.2C183.2 55 183.3 54.7 183.3 54.4C183.4 54.1 183.5 53.8 183.5 53.6V53.7C183.6 54.2 183.8 54.7 184 55.2H183.1Z" fill="#FF1F24"/>
<path d="M183.7 60.3L184.7 58.9L183.7 57.5L182.6 58.9L183.7 60.3Z" fill="#FF1F24"/>
<path d="M221.8 70.8C221.8 70.8 220.3 70.4 219 71.5C217.7 72.6 218.1 74 218.8 74.8C219.5 75.6 220.3 75.6 221.2 75.7C222.1 75.8 218.2 78 215.8 75.3L215.5 75.6L221 82L221.3 81.7C219 79 221.8 75.5 221.7 76.3C221.6 77.2 221.6 78 222.2 78.8C222.9 79.6 224.2 80.2 225.5 79.1C226.8 78 226.6 76.5 226.6 76.5C226.3 72.4 227.8 70.4 227.8 70.4C227.8 70.4 225.8 71.7 221.8 70.8Z" fill="#190F0E"/>
<path d="M228.5 63.1L228.3 62.8C228.5 62.4 228.8 61.9 229.1 61.4C229.6 60.5 230.1 59.6 230.6 58.8C230.5 58.7 230.4 58.6 230.4 58.5C230.1 58.6 229.8 58.8 229.4 59C228.3 59.5 227.1 60.1 226.2 60.5L226 60.3C225.9 60.4 225.8 60.4 225.7 60.5H225.6C225.7 60.6 225.7 60.6 225.8 60.7C225.9 60.8 225.9 60.8 226 60.9L226.6 61.6H226.7C226.8 61.5 226.9 61.4 227 61.4H227.1L226.8 61C227 60.9 227.3 60.7 227.6 60.6L227.7 60.5L228.7 61.6C228.6 61.8 228.4 62.1 228.3 62.4L228.2 62.5L227.9 62.2H227.8L227.7 62.3L227.6 62.4H227.5C227.6 62.5 227.7 62.6 227.8 62.7C227.9 62.8 228 62.9 228.1 63L228.5 63.5H228.6C228.3 63.4 228.4 63.3 228.5 63.1ZM227.7 60.2C228 60.1 228.3 59.9 228.6 59.8C228.9 59.6 229.2 59.5 229.5 59.3L229.4 59.4C229.1 59.9 228.7 60.5 228.4 61.1L227.7 60.2Z" fill="#190F0E"/>
<path d="M224.5 62.8C224.5 62.8 224.1 62.7 223.8 63C223.5 63.3 223.6 63.7 223.8 63.9C224 64.1 224.2 64.1 224.5 64.1C224.7 64.1 223.7 64.8 223 64.1L222.9 64.2L224.5 65.9L224.6 65.8C223.9 65.1 224.6 64.1 224.6 64.3C224.6 64.5 224.6 64.8 224.8 65C225 65.2 225.4 65.4 225.7 65C226 64.7 226 64.3 226 64.3C225.9 63.2 226.2 62.6 226.2 62.6C226.2 62.6 225.6 63 224.5 62.8Z" fill="#190F0E"/>
<path d="M215 56.8L214.7 56.6C214.8 56.1 215 55.6 215.1 55.1C215.4 54.1 215.7 53.2 215.9 52.4C215.8 52.3 215.7 52.3 215.6 52.2C215.3 52.4 215.1 52.6 214.8 52.8C213.9 53.5 212.9 54.3 212.1 54.9L211.8 54.7C211.7 54.8 211.7 54.9 211.6 55V55.1C211.7 55.1 211.7 55.2 211.8 55.2C211.9 55.2 212 55.3 212 55.3L212.7 55.7V55.6C212.8 55.5 212.8 55.4 212.9 55.3V55.2L212.5 54.9C212.7 54.7 212.9 54.5 213.1 54.4L213.2 54.3L214.4 55.1C214.3 55.3 214.2 55.6 214.2 55.9V56L213.8 55.8V55.9L213.7 56L213.6 56.1V56.2C213.7 56.3 213.8 56.3 213.9 56.4C214 56.5 214.1 56.6 214.3 56.6L214.8 56.9V56.8C214.9 57 214.9 56.9 215 56.8ZM213.7 54.2C213.9 54 214.2 53.8 214.4 53.6C214.7 53.4 214.9 53.2 215.2 53V53.1C215 53.7 214.8 54.3 214.7 54.8L213.7 54.2Z" fill="#FF1F24"/>
<path d="M212.4 57.3C212.4 57.3 212.6 56.7 212.1 56.3C211.6 55.9 211.2 56.2 211 56.4C210.9 56.6 210.7 57.1 210.8 57.6C210.8 58.1 211.2 58.8 211 59.5C211.5 59 212.3 59.1 212.8 58.9C213.3 58.7 213.7 58.4 213.9 58.2C214 58 214.1 57.5 213.6 57.2C212.9 56.9 212.4 57.3 212.4 57.3Z" fill="#FF1F24"/>
<path d="M76.7 25.2C71.6 24 66.5 23.7 61.3 25.3C57 26.7 54.4 29.1 54.6 33.8C54.6 34.7 54.5 35.5 53.7 36C53.4 34.7 53 33.4 52.8 32.1C51.6 25.6 54.9 21.3 61.6 21.2C66.9 21.2 72.6 20.4 76.7 25.2Z" fill="#963419"/>
</svg>
