<svg width="182" height="120" viewBox="0 0 182 120" fill="none" xmlns="http://www.w3.org/2000/svg">
<path d="M164.9 60.8C163.7 57.4 176.7 53.9 178.2 49C179.2 45.9 180.6 45.1 181.1 42.8C182.5 37.3 181.6 34.9 176.1 34.6C171.5 34.3 169.3 32.1 167.5 28.4C164.9 23 162.3 17.6 158.6 12.9C153.7 6.7 147.3 3.7 141.2 6.9C135.5 9.8 132.1 8.1 127.5 5.3C116.1 -1.4 103.5 -1.43051e-06 91 0.699999C82.1 1.2 74.5 7.6 65.1 5.8C63.1 5.4 61.2 7.4 59.7 9C55.7 13.3 52.1 17.8 49 22.8C47.8 24.6 46.8 26.6 44.9 27.7C42.3 29.3 40.3 31.1 41.3 34.5C42.4 38 44.8 40.1 48.5 40.4C49.8 40.5 51.3 40 51.9 41.7C51.7 42 51.7 42.4 51.4 42.5C42.4 45.9 36.8 52.3 35 62C34.5 64.9 32.5 63.3 31 63.5C25.4 64.3 19.8 64.3 14.4 62.4C6 59.4 1.7 61.3 1 68.5C0.500002 73.9 3.2 77.5 8.2 77.5C15.9 77.6 23.5 77.6 31.2 77.6C33 77.6 34.5 77.3 35.1 80C36.6 87.7 42 99.3 47.6 104.9C63.2 120.5 88.8 123 125.9 115.3C160.4 99.6 164.9 60.8 164.9 60.8ZM47.7 104.9C63.3 120.5 104.3 122.9 126 115.3C160.4 99.7 165 60.8 165 60.8" fill="#290D02"/>
<path d="M73.7 56.2C75.2 54.6 77.2 54.3 79.2 54.3C83.6 54.4 87.8 54.2 91 50.4C92.2 48.9 93.8 49.9 95.2 50.2C103.5 52.1 110.5 56.4 116.2 62.6C117.3 63.8 119.9 65.9 123.1 70.6C121.5 65.3 116.2 59 113.2 55.6C118.1 55.2 122.6 54.9 126.4 52.1C127.8 51.1 128.8 52.7 129.8 53.5C137.3 59.7 140.4 68 141.1 77.4C141 80.4 141.9 83.4 141.7 86.4C136.9 96.5 125.6 101.7 114 98.7C106.1 96.7 99 92.7 95.1 85C90.6 76.3 83.9 69.8 76.4 63.8C73.8 62 71.2 60 73.7 56.2Z" fill="#FEE0BC"/>
<path d="M138.6 57.2C138.5 57.1 138.3 57 138.2 56.9C133.6 52.3 128.7 48 132.4 40.1C133.4 37.9 133.3 34.6 131.9 31.9C131.8 31.6 131.7 31.3 131.7 31C131.1 24.2 128.3 22 125.6 19.7C117.9 13 97.7 13.7 90.5 23.1C89.2 24.8 81.9 25.2 80.9 23.3C78.8 19.5 75.1 18.6 71.6 17.3C75.3 10.9 82 9.1 88.3 8C99.8 5.9 111 5 122.4 8.6C123.1 8.8 123.6 9.1 124.7 9.5C129.8 11.3 134.3 14.7 137.5 20.2C137.7 18.7 137.8 18 138 17.2C142.6 10.3 150.8 10.5 155.5 17.6C158.7 22.5 161.9 27.4 164.3 32.7C165.8 35.9 167.8 38.3 171.2 39.3C173.5 39.3 176.6 38.3 177.6 40.5C178.8 43.1 176.1 45.2 174.6 47.3C165.6 56.1 152.1 53.4 147.7 41.9C146.5 38.7 145.2 35.5 143.6 32.4C141.2 29.1 139.3 25.4 134 22.9C139.4 31 140.8 39 142.7 46.9C143.7 51 147.1 53.3 149.7 56.3C152.3 59.6 152.2 62.4 149.5 64.3C147 66.1 144 65.5 141.8 62.4C140.8 60.6 139.9 58.8 138.6 57.2Z" fill="#C35D00"/>
<path d="M70 80.9C74.2 82.2 75.4 87.7 80.8 88.4C77.8 84.1 75.2 80.4 71.7 77.4C66.2 72.8 61.1 73.5 56.8 79.2C56.2 80 55.7 80.8 55 81.6C54.2 82.4 53.4 83.6 52.1 83C50.7 82.4 50.6 80.9 50.7 79.5C50.9 74.6 56.2 68.1 61.4 66.1C67 63.9 71.1 66.4 74.6 70.4C79.8 76.4 83.7 83.4 87.8 90.2C86.3 93.3 89.4 94.2 90.7 95.8C96.4 102.5 95.5 105.4 86.8 107.5C77.3 109.8 68.6 107.4 60.6 102.6C54.2 98.8 53.6 94.3 57.4 87.9C58 86.9 58.6 85.9 59.2 84.9C62.9 79.1 63.4 78.9 70 80.9Z" fill="#FDE1BD"/>
<path d="M126.8 27.2C127.9 30.1 128.5 33.1 128.7 36.2C129.3 47 124 51.7 113.9 51.2C106.6 50.9 99.4 48 95.7 40.4C94 35.3 95.2 30.7 99.2 27.6C106 22.3 113.8 21.9 121.8 23.2C124 23.7 125.5 25.5 126.8 27.2Z" fill="#4C0B00"/>
<path d="M73.7 56.2C73.1 59.2 74.5 61.1 76.8 62.8C84.8 68.8 91.4 76 96.4 84.9C106 101.9 127.1 102.8 140.8 87.2C144.3 90.3 141.7 92.7 140 95.3C136.4 100.9 131.3 104.9 126 108.5C121.3 111.7 116.1 110.5 111.3 107.9C102.8 103.3 97.2 95.8 91.8 88.2C87.6 82.4 83.9 76.3 79.9 70.4C77.6 67 74.8 64.3 71.1 62.5C69.9 61.9 67.8 62.2 67.8 60.1C67.8 58.2 69.7 58 70.9 57.3C71.8 56.9 72.8 56.6 73.7 56.2Z" fill="#D59C79"/>
<path d="M140 95.3C139.9 92.6 142.4 90.1 140.8 87.2C140.9 84 140.9 80.8 141 77.6C142.3 78.9 141.1 80.8 142.1 82.5C145.5 73.3 142 65.3 138.6 57.3C140.1 57.9 140.9 59.2 141.7 60.4C143.3 62.7 145.1 65.6 148.5 63.7C151.6 61.9 150.9 59 149.7 56.2C158.5 59 159.3 60.3 157.2 69.1C154.6 79.8 149.6 89.1 140 95.3Z" fill="#8C3200"/>
<path d="M70 80.9C67.6 81.6 64.8 78.9 62.6 81.8C59.8 85.5 57.1 89.4 55.9 93.8C55 97.2 58 99.8 60.7 101.3C69.7 106.5 79.3 109 89.6 105.3C94.1 103.7 94.5 101.8 91.3 98.1C89.3 95.7 87.3 93.3 85.5 91.1C85.6 91.1 86.6 90.6 87.6 90.1C91.6 94.8 95.5 99.4 99.5 104.1C101.8 106.8 100.9 108.4 97.8 108.8C85.2 110.6 72.6 111 60.5 106C53.9 103.3 49.2 98.6 47.2 91.5C46.3 88.4 46.4 86.5 50.4 87.2C54.6 87.9 57.2 85.5 59.5 82.4C62.9 78.1 65 77.8 70 80.9Z" fill="#D39D7C"/>
<path d="M57.4 47.5C56 48.3 51.3 50.8 50.5 52.4C57.6 48.5 61.4 51.5 63.5 55.3C64.7 57.4 63.6 60.4 62.7 60.6C56.7 62 52 67.4 45.1 66.3C39.2 65.4 38.8 65.2 40.7 59.8C43.5 52.3 49.9 47.4 57.4 47.5Z" fill="#F9DEBB"/>
<path d="M76.8 25.2C78.5 31.5 76 35.6 70.2 36.2C68 36.4 66 37 64.2 38.2C57.8 42.6 57.7 42.6 53.8 36C54.4 27.3 55.2 25.9 61.7 23.9C66.9 22.3 72 22.3 76.8 25.2Z" fill="#4D0B00"/>
<path d="M126.8 27.2C120 21.3 105 24.3 99.8 28.7C96.2 31.8 95.7 36.1 95.7 40.5C88.8 32.2 91.6 23.2 102.4 20.6C108.3 19.2 114.7 19.2 120.6 21.3C123.4 22.3 126 23.9 126.8 27.2Z" fill="#9B3014"/>
<path d="M9.8 68.2C10.7 67.1 11.5 65.9 13.4 66.2C20.6 67.2 27.8 68 35 69C36.5 69.2 39 68.8 39 70.9C39.1 73.2 37.6 73.2 36.2 73.1C30.6 75.1 12 75 6.8 73.3C8.6 72 8.6 69.8 9.8 68.2Z" fill="#7A3205"/>
<path d="M143.6 32.2C145.9 34.3 147.6 36.9 148.2 39.7C150.7 51.3 162.9 53.6 171.9 48.5C172.8 48 173.7 47.6 174.6 47.2C172.5 52.2 168.1 53.7 163.2 54.2C157.1 54.9 151.7 53.5 148.3 47.7C145.6 42.9 145 37.4 143.6 32.2Z" fill="#863505"/>
<path d="M171.2 39.2C167.8 39.1 165.8 37.2 164.2 34.4C161.6 29.6 158.5 25.1 156 20.3C151.8 12.4 145.7 10.4 138 17.1C138.2 12.1 145.5 9.4 151 12.1C154.1 13.7 156.2 16.2 157.9 19.1C160.2 22.9 162.3 26.9 164.3 30.9C166 34.2 168 37.1 171.2 39.2Z" fill="#DD8438"/>
<path d="M89.8 39.9C87.2 38.3 85.4 37.4 83.2 37.1C81.8 37 79.3 37.6 80 34.8C80.4 33 80.5 30.4 83.1 30.4C84.9 30.4 87.3 30.5 87.5 33.3C87.6 35.4 88.6 37.1 89.8 39.9Z" fill="#A8530B"/>
<path d="M9.8 68.2C10.3 70.8 11.1 73.5 6.8 73.3C6.5 71.7 5.2 70.3 6 68.6C6.4 67.8 6.3 66.5 7.4 66.2C9 65.9 9.2 67.3 9.8 68.2Z" fill="#947665"/>
<path d="M42.2 85.8C40.4 83.4 39.4 81 39.9 79C40.3 77.4 42.7 78.5 44.5 78.5C43.8 80.9 43.1 83.1 42.2 85.8Z" fill="#D4BBA6"/>
<path d="M59.1 16.8C61.9 13.9 63.5 10.7 67.5 10.8C64.9 12.8 65 18.1 59.1 16.8Z" fill="#B67138"/>
<path d="M49.4 36.7C46.6 36.4 45.7 35.3 45.9 33.3C46 32.9 47.1 32.2 47.4 32.4C48.9 33.2 48.7 34.8 49.4 36.7Z" fill="#A36034"/>
<path d="M89.5 29.1C89.5 29.1 87.1 28.4 84.8 28.5C82.6 28.5 80.4 28.8 80.4 28.8L80.6 26.3C80.6 26.3 82.9 26.8 84.9 26.7C86.9 26.6 89.8 26.2 89.8 26.2L89.5 29.1Z" fill="#FEE0BC"/>
<path d="M36.1662 67.5298L33.694 67.1588L32.5216 74.9711L34.9939 75.3421L36.1662 67.5298Z" fill="#290D02"/>
<path d="M76.7 25.2C71.6 24 66.5 23.7 61.3 25.3C57 26.7 54.4 29.1 54.6 33.8C54.6 34.7 54.5 35.5 53.7 36C53.4 34.7 53 33.4 52.8 32.1C51.6 25.6 54.9 21.3 61.6 21.2C66.9 21.2 72.6 20.4 76.7 25.2Z" fill="#963419"/>
</svg>
